{"title":"Family.Weekend.2013.HDRip.XVID.AC3.HQ.Hive-CM8","uid":8407574,"size":1669147494,"categoryP":"video","categoryS":"movies","magnet":"?xt=urn:btih:d2cd02af70a60bd1a9f08a400f990c26602ac221&amp;dn=Family.Weekend.2013.HDRip.XVID.AC3.HQ.Hive-CM8&amp;tr=udp%3A%2F%2Ftracker.openbittorrent.com%3A80&amp;tr=udp%3A%2F%2Fopen.demonii.com%3A1337&amp;tr=udp%3A%2F%2Ftracker.coppersurfer.tk%3A6969&amp;tr=udp%3A%2F%2Fexodus.desync.com%3A6969","seeders":1,"leechers":0,"uploader":"Gh0stNet","files":5,"time":1366836010,"description":"\tFamily.Weekend.2013.HDRip.XVID.AC3.HQ.Hive-CM8\n\n\nSource: 1080p Web-DL\n\nVideo.: 720x304 @bitrate 1700 2pass\nAudio.: English AC3 5.1 @384\nSubs..: Yes, English in srt/subs\nSample: Yes, included\n\n\nIMDb..: http://www.imdb.com/title/tt1821426/\n\n\nENCODE\nquality was great so only sharpen and denoise\ngot very nice\nenjoy\n\n\nGeneral\nComplete name                  : Family.Weekend.2013.HDRip.XVID.AC3.HQ.Hive-CM8.avi\nFormat                         : AVI\nFormat/Info                    : Audio Video Interleave\nFile size                      : 1.54 GiB\nDuration                       : 1h 45mn\nOverall bit rate               : 2 093 Kbps\nWriting application            : Nandub v1.0rc2\nWriting library                : Nandub build 1853/release\n\nVideo\nID                             : 0\nFormat                         : MPEG-4 Visual\nFormat profile                 : Advanced Simple@L5\nFormat settings, BVOP          : 2\nFormat settings, QPel          : Yes\nFormat settings, GMC           : No warppoints\nFormat settings, Matrix        : Default (H.263)\nMuxing mode                    : Packed bitstream\nCodec ID                       : XVID\nCodec ID/Hint                  : XviD\nDuration                       : 1h 45mn\nBit rate                       : 1 700 Kbps\nWidth                          : 720 pixels\nHeight                         : 304 pixels\nDisplay aspect ratio           : 2.35:1\nFrame rate                     : 23.976 fps\nColor space                    : YUV\nChroma subsampling             : 4:2:0\nBit depth                      : 8 bits\nScan type                      : Progressive\nCompression mode               : Lossy\nBits/(Pixel*Frame)             : 0.324\nStream size                    : 1.25 GiB (81%)\nWriting library                : XviD 1.2.1 (UTC 2008-12-04)\n\nAudio\nID                             : 1\nFormat                         : AC-3\nFormat/Info                    : Audio Coding 3\nMode extension                 : CM (complete main)\nFormat settings, Endianness    : Big\nCodec ID                       : 2000\nDuration                       : 1h 45mn\nBit rate mode                  : Constant\nBit rate                       : 384 Kbps\nChannel(s)                     : 6 channels\nChannel positions              : Front: L C R, Side: L R, LFE\nSampling rate                  : 48.0 KHz\nBit depth                      : 16 bits\nCompression mode               : Lossy\nStream size                    : 289 MiB (18%)\nAlignment                      : Split accross interleaves\nInterleave, duration           : 42 ms (1.00 video frame)\nInterleave, preload duration   : 500 ms\n\n\nPLOT\nA 16-year-old girl takes her parents hostage after they\nmiss her big jump-roping competition.\n\n\nCAST\nKristin Chenoweth  ...    Samantha Smith-Dungy\nMatthew Modine     ...    Duncan Dungy\nOlesya Rulin       ...    Emily Smith-Dungy\n\nScreens: &lt;a href=&quot;\nhttp://i.imgur.com/9lQlLJV.png&quot; rel=&quot;nofollow&quot; target=&quot;_NEW&quot;&gt;\nhttp://i.imgur.com/9lQlLJV.png&lt;/a&gt; &lt;a href=&quot;\nhttp://i.imgur.com/RDiH97C.png&quot; rel=&quot;nofollow&quot; target=&quot;_NEW&quot;&gt;\nhttp://i.imgur.com/RDiH97C.png&lt;/a&gt; &lt;a href=&quot;\nhttp://i.imgur.com/oae7q8s.png&quot; rel=&quot;nofollow&quot; target=&quot;_NEW&quot;&gt;\nhttp://i.imgur.com/oae7q8s.png&lt;/a&gt; &lt;a href=&quot;\nhttp://i.imgur.com/CaXd7lp.png&quot; rel=&quot;nofollow&quot; target=&quot;_NEW&quot;&gt;\nhttp://i.imgur.com/CaXd7lp.png&lt;/a&gt; &lt;a href=&quot;\nhttp://i.imgur.com/c4tYU0Q.png&quot; rel=&quot;nofollow&quot; target=&quot;_NEW&quot;&gt;\nhttp://i.imgur.com/c4tYU0Q.png&lt;/a&gt;","torrent":{"xt":"urn:btih:d2cd02af70a60bd1a9f08a400f990c26602ac221","amp;dn":"Family.Weekend.2013.HDRip.XVID.AC3.HQ.Hive-CM8","amp;tr":["udp%3A%2F%2Ftracker.openbittorrent.com%3A80","udp%3A%2F%2Fopen.demonii.com%3A1337","udp%3A%2F%2Ftracker.coppersurfer.tk%3A6969","udp%3A%2F%2Fexodus.desync.com%3A6969"],"infoHash":"d2cd02af70a60bd1a9f08a400f990c26602ac221","infoHashBuffer":{"type":"Buffer","data":[210,205,2,175,112,166,11,209,169,240,138,64,15,153,12,38,96,42,194,33]},"announce":[],"urlList":[]}}